<svg xmlns="http://www.w3.org/2000/svg" width="50" height="60" viewBox="0 0 50 60" fill="currentColor">
  <g clip-path="url(#clip0_186_642)">
    <path fill-rule="evenodd" clip-rule="evenodd" d="M0.0241185 27.1367C0.0100553 27.3868 0.00292969 27.6388 0.00292969 27.8924L0.0241185 27.1367Z" fill="currentColor"/>
    <path d="M0.00292969 0H30.7171C41.3653 0 49.9973 8.63202 49.9973 19.2802C49.9973 29.9283 41.3653 38.5604 30.7171 38.5604C23.8179 38.5282 17.1137 35.0121 17.1133 27.1358L20.9289 27.1359H28.6518C32.9904 27.1359 36.5074 23.6189 36.5074 19.2804C36.5074 14.9419 32.9904 11.4249 28.6518 11.4249H0.00292969V0ZM13.2536 14.641V27.1364V38.5604V38.6948V59.9062H0.00292969V38.5604V27.8916C0.00292969 27.638 0.0100553 27.386 0.0241185 27.1359C0.41582 20.1694 6.1891 14.641 13.2536 14.641Z" fill="currentColor"/>
  </g>
  <defs>
    <clipPath id="clip0_186_642">
      <rect width="50" height="59.9062" fill="currentColor"/>
    </clipPath>
  </defs>
</svg>