<svg xmlns="http://www.w3.org/2000/svg" width="280" height="64" viewBox="0 0 280 64" fill="currentColor">
  <path d="M72.1186 39.8304C72.1187 43.8235 72.9308 46.8692 74.555 48.9672C76.247 50.9975 78.8531 52.0125 82.3724 52.0125C84.6057 52.0125 86.6023 51.505 88.362 50.4899C90.1217 49.4747 91.4753 48.0193 92.4228 46.1243C93.4381 44.1616 93.9457 41.759 93.9457 38.9167V11.6071H108.159V62.7736H95.6715L94.5548 54.5506C93.0658 57.3932 90.8662 59.6945 87.9559 61.4541C85.1133 63.1462 81.6612 63.9922 77.6003 63.9922C73.472 63.9922 69.9188 63.1462 66.9409 61.4541C64.0306 59.6944 61.7972 57.1225 60.2405 53.7384C58.6839 50.3544 57.9057 46.1921 57.9057 41.2515V11.6071H72.1186V39.8304ZM160.704 10.3885C166.93 10.3885 171.837 11.8098 175.424 14.6524C179.079 17.4273 181.245 21.2179 181.922 26.0232H168.521C168.183 24.5342 167.337 23.3836 165.983 22.5714C164.629 21.7592 162.836 21.3528 160.602 21.3528C158.301 21.3528 156.508 21.7593 155.222 22.5714C154.004 23.3836 153.394 24.4664 153.394 25.8199C153.394 26.6997 153.8 27.512 154.613 28.2564C155.425 28.9332 156.575 29.5425 158.064 30.0839C159.621 30.5577 161.517 31.0312 163.75 31.505C167.743 32.3171 171.228 33.265 174.206 34.3478C177.184 35.3631 179.519 36.8523 181.211 38.8151C182.903 40.7101 183.749 43.485 183.749 47.1397C183.817 50.3884 182.937 53.299 181.11 55.8708C179.35 58.4426 176.846 60.4394 173.597 61.8607C170.348 63.282 166.491 63.9922 162.024 63.9922C157.287 63.9922 153.191 63.248 149.739 61.759C146.288 60.2024 143.581 58.1378 141.619 55.566C139.656 52.9265 138.505 49.9486 138.166 46.6324H152.379C152.65 47.8505 153.157 48.9675 153.902 49.9826C154.714 50.93 155.763 51.7083 157.049 52.3174C158.403 52.9265 159.993 53.2311 161.821 53.2311C163.58 53.2311 165.002 52.9944 166.084 52.5207C167.235 51.9792 168.081 51.3021 168.623 50.4899C169.232 49.6777 169.537 48.7977 169.537 47.8502C169.537 46.4966 169.13 45.4477 168.318 44.7032C167.506 43.9587 166.321 43.3495 164.765 42.8758C163.208 42.402 161.347 41.9624 159.181 41.5563C156.744 41.0149 154.342 40.4056 151.973 39.7288C149.672 39.052 147.574 38.172 145.679 37.0891C143.851 35.9386 142.396 34.5172 141.313 32.8252C140.23 31.1332 139.689 29.0347 139.689 26.5305C139.689 23.4849 140.501 20.7439 142.125 18.3074C143.817 15.8709 146.221 13.9421 149.334 12.5208C152.515 11.0996 156.305 10.3885 160.704 10.3885ZM214.729 10.3885C219.535 10.3885 223.697 11.2006 227.217 12.8249C230.804 14.4492 233.545 16.7845 235.44 19.8302C237.403 22.8758 238.384 26.6324 238.384 31.0993V62.7736H226.404L224.78 55.0587C224.103 56.4122 223.223 57.6301 222.141 58.7129C221.125 59.7958 219.941 60.7437 218.587 61.5558C217.234 62.3003 215.711 62.8756 214.019 63.2817C212.394 63.7554 210.567 63.9922 208.537 63.9922C204.34 63.9922 200.821 63.3151 197.978 61.9615C195.203 60.5402 193.139 58.6791 191.786 56.3781C190.5 54.0092 189.857 51.4033 189.857 48.5607C189.857 45.5152 190.635 42.8081 192.192 40.4393C193.748 38.0705 196.151 36.2087 199.4 34.8551C202.648 33.5017 206.709 32.8252 211.582 32.8252H224.171C224.171 30.3888 223.833 28.392 223.156 26.8353C222.547 25.211 221.531 23.9925 220.11 23.1803C218.756 22.3682 216.929 21.9625 214.628 21.9625C212.124 21.9625 209.992 22.5039 208.232 23.5868C206.54 24.6697 205.491 26.294 205.085 28.4596H191.278C191.684 24.8048 192.902 21.6575 194.933 19.018C196.963 16.3109 199.67 14.213 203.054 12.7241C206.506 11.1675 210.398 10.3885 214.729 10.3885ZM13.8882 62.7893H0V29.2338C3.86554e-06 28.9681 0.00758521 28.7043 0.022307 28.4422C0.43286 21.1405 6.48369 15.3456 13.8882 15.3456V62.7893ZM131.721 62.7736H117.508V0H131.721V62.7736ZM279.992 25.4143H275.22C273.19 25.4143 271.295 25.6511 269.535 26.1248C267.843 26.5986 266.354 27.3769 265.068 28.4596C263.85 29.4748 262.902 30.8962 262.226 32.7236C261.616 34.4833 261.312 36.7168 261.312 39.4239V62.7736H247.099V11.6071H259.688L261.008 21.0488C262.294 18.8153 263.85 16.9196 265.677 15.3629C267.505 13.8064 269.637 12.5885 272.073 11.7087C274.51 10.8289 277.149 10.3885 279.992 10.3885V25.4143ZM213.308 41.3531C211.345 41.3531 209.721 41.6238 208.435 42.1652C207.217 42.639 206.303 43.3493 205.694 44.2968C205.085 45.1767 204.78 46.1924 204.78 47.343C204.78 48.5611 205.085 49.6101 205.694 50.4899C206.303 51.3697 207.149 52.013 208.232 52.4191C209.315 52.8251 210.567 53.0279 211.988 53.0279C213.68 53.0279 215.203 52.7571 216.557 52.2158C217.91 51.6067 219.061 50.7606 220.009 49.6777C220.956 48.5948 221.734 47.3763 222.343 46.0227C222.952 44.6015 223.359 43.079 223.562 41.4547V41.3531H213.308ZM32.1924 0C43.3529 0.000102905 52.4 9.04795 52.4 20.2085C52.3998 31.3689 43.3527 40.4161 32.1924 40.4162C24.961 40.3824 17.9344 36.6969 17.934 28.4415L21.9328 28.4422H30.0278C34.5748 28.4422 38.2606 24.7557 38.2607 20.2085C38.2607 15.6613 34.5749 11.9748 30.0278 11.9747H0V0H32.1924Z" fill="currentColor"/>
</svg>